# xmcd CD database file
#
# Track frame offsets:
#	150
#	13007
#	28490
#	41494
#	55771
#	70106
#	83109
#	95534
#	108796
#	121287
#	134722
#	148802
#	161753
#	175617
#	186500
#	200629
#	213343
#	225989
#	238674
#	251120
#	264229
#	276573
#	291252
#	303809
#	316905
#	329974
#
# Disc length: 4568 seconds
#
# Revision: 0
# Processed by: cddbd v1.5.2PL0 Copyright (c) Steve Scherf et al.
# Submitted via: CDex 1.85
#
DISCID=8c11d61a
DTITLE=Gorni Kramer and The Three Niggers of Broadway - Jazz in Italy in the 30's 1o
DYEAR=1900
DGENRE=Jazz
TTITLE0=1 - Anime gemelle
TTITLE1=2 - Bambola cinese
TTITLE2=3 - Crapa pelada
TTITLE3=4 - Espresso della mattina
TTITLE4=5 - Zum zum
TTITLE5=6 -
TTITLE6=7 - 
TTITLE7=8  - 
TTITLE8=9 - 
TTITLE9=10 - 
TTITLE10=11 - 
TTITLE11=12 - 
TTITLE12=13 - 
TTITLE13=14 - 
TTITLE14=15 - 
TTITLE15=16 - 
TTITLE16=17 - 
TTITLE17=18 - 
TTITLE18=19 - 
TTITLE19=20 - 
TTITLE20=21 - 
TTITLE21=22  - 
TTITLE22=23 - 
TTITLE23=24 - 
TTITLE24=25 - 
TTITLE25=26 - 
EXTD=
EXTT0=
EXTT1=
EXTT2=
EXTT3=
EXTT4=
EXTT5=
EXTT6=
EXTT7=
EXTT8=
EXTT9=
EXTT10=
EXTT11=
EXTT12=
EXTT13=
EXTT14=
EXTT15=
EXTT16=
EXTT17=
EXTT18=
EXTT19=
EXTT20=
EXTT21=
EXTT22=
EXTT23=
EXTT24=
EXTT25=
PLAYORDER=
